<?xml version="1.0" encoding="UTF-8" standalone="no"?>
<!-- Created with Inkscape (http://www.inkscape.org/) -->

<svg
   xmlns:dc="http://purl.org/dc/elements/1.1/"
   xmlns:cc="http://creativecommons.org/ns#"
   xmlns:rdf="http://www.w3.org/1999/02/22-rdf-syntax-ns#"
   xmlns:svg="http://www.w3.org/2000/svg"
   xmlns="http://www.w3.org/2000/svg"
   xmlns:sodipodi="http://sodipodi.sourceforge.net/DTD/sodipodi-0.dtd"
   xmlns:inkscape="http://www.inkscape.org/namespaces/inkscape"
   width="61.931198mm"
   height="15.100876mm"
   viewBox="0 0 219.44124 53.507042"
   id="svg2"
   version="1.1"
   inkscape:version="0.91 r13725"
   inkscape:export-filename="C:\Users\daukes\Desktop\TPS3.png"
   inkscape:export-xdpi="204.28999"
   inkscape:export-ydpi="204.28999"
   sodipodi:docname="PolyRobotics_plain.svg">
  <defs
     id="defs4" />
  <sodipodi:namedview
     id="base"
     pagecolor="#000000"
     bordercolor="#666666"
     borderopacity="1.0"
     inkscape:pageopacity="0"
     inkscape:pageshadow="2"
     inkscape:zoom="3.3644839"
     inkscape:cx="52.210065"
     inkscape:cy="-52.388092"
     inkscape:document-units="px"
     inkscape:current-layer="layer1"
     showgrid="false"
     showguides="false"
     fit-margin-top="0"
     fit-margin-left="0"
     fit-margin-right="0"
     fit-margin-bottom="0"
     inkscape:window-width="1918"
     inkscape:window-height="1440"
     inkscape:window-x="-7"
     inkscape:window-y="0"
     inkscape:window-maximized="0"
     showborder="true" />
  <metadata
     id="metadata7">
    <rdf:RDF>
      <cc:Work
         rdf:about="">
        <dc:format>image/svg+xml</dc:format>
        <dc:type
           rdf:resource="http://purl.org/dc/dcmitype/StillImage" />
        <dc:title></dc:title>
      </cc:Work>
    </rdf:RDF>
  </metadata>
  <g
     inkscape:label="Layer 1"
     inkscape:groupmode="layer"
     id="layer1"
     transform="translate(-161.28946,-350.42236)">
    <path
       inkscape:connector-curvature="0"
       id="path4181"
       style="font-style:normal;font-variant:normal;font-weight:bold;font-stretch:normal;font-size:medium;line-height:80.00000119%;font-family:'Berthold Akzidenz Grotesk';-inkscape-font-specification:'Berthold Akzidenz Grotesk';text-align:start;letter-spacing:0px;word-spacing:0px;text-anchor:start;fill:#ffc627;fill-opacity:1;stroke:none;stroke-width:1px;stroke-linecap:butt;stroke-linejoin:miter;stroke-opacity:1"
       d="m 162.29446,378.70236 7.08,0 0,-9.24 4.68,0 c 3.84,-0.08 9.04,-0.2 11.48,-5.24 0.64,-1.32 0.96,-2.84 0.96,-4.4 0,-1.92 -0.52,-4.2 -1.6,-5.8 -2.48,-3.56 -6.6,-3.56 -11.24,-3.56 l -11.36,0 0,28.24 z m 11.56,-23.04 c 2.04,0 5.6,0 5.6,4.12 0,4.36 -3.2,4.44 -5.84,4.44 l -4.24,0 0,-8.56 4.48,0 z" />
    <path
       inkscape:connector-curvature="0"
       id="path4183"
       style="font-style:normal;font-variant:normal;font-weight:bold;font-stretch:normal;font-size:medium;line-height:80.00000119%;font-family:'Berthold Akzidenz Grotesk';-inkscape-font-specification:'Berthold Akzidenz Grotesk';text-align:start;letter-spacing:0px;word-spacing:0px;text-anchor:start;fill:#ffc627;fill-opacity:1;stroke:none;stroke-width:1px;stroke-linecap:butt;stroke-linejoin:miter;stroke-opacity:1"
       d="m 199.65321,357.18236 c -8,-0.44 -12.04,4.64 -12.04,11.04 0,7.72 5.36,11.08 11.24,11.08 8.16,0 11.2,-5.8 11.2,-11.08 0,-3.8 -1.88,-10.56 -10.4,-11.04 z m -1.16,4.88 c 0.88,-0.08 2.32,-0.04 3.6,1.16 1.16,1.12 1.72,2.92 1.72,5.24 0,3.28 -1.64,5.96 -4.96,5.96 -3.44,0 -5.04,-2.92 -5.04,-6.24 0,-1.44 0.28,-2.88 1.04,-4.08 0.84,-1.32 1.88,-1.92 3.64,-2.04 z" />
    <path
       inkscape:connector-curvature="0"
       id="path4185"
       style="font-style:normal;font-variant:normal;font-weight:bold;font-stretch:normal;font-size:medium;line-height:80.00000119%;font-family:'Berthold Akzidenz Grotesk';-inkscape-font-specification:'Berthold Akzidenz Grotesk';text-align:start;letter-spacing:0px;word-spacing:0px;text-anchor:start;fill:#ffc627;fill-opacity:1;stroke:none;stroke-width:1px;stroke-linecap:butt;stroke-linejoin:miter;stroke-opacity:1"
       d="m 214.05321,350.46236 0,28.24 6.16,0 0,-28.24 -6.16,0 z" />
    <path
       inkscape:connector-curvature="0"
       id="path4187"
       style="font-style:normal;font-variant:normal;font-weight:bold;font-stretch:normal;font-size:medium;line-height:80.00000119%;font-family:'Berthold Akzidenz Grotesk';-inkscape-font-specification:'Berthold Akzidenz Grotesk';text-align:start;letter-spacing:0px;word-spacing:0px;text-anchor:start;fill:#ffc627;fill-opacity:1;stroke:none;stroke-width:1px;stroke-linecap:butt;stroke-linejoin:miter;stroke-opacity:1"
       d="m 236.49196,357.82236 -3.44,14.96 -3.44,-14.96 -6.56,0 6.24,20.16 c 0.12,0.44 0.28,0.96 0.28,1.48 0,1.48 -1.56,1.48 -2.56,1.52 l -2.16,0 0,4.88 4.44,0 c 1.6,-0.04 3,-0.12 4.44,-1.68 1.04,-1.16 1.48,-2.44 1.96,-3.8 l 7.36,-22.56 -6.56,0 z" />
    <path
       inkscape:connector-curvature="0"
       id="path4189"
       style="font-style:normal;font-variant:normal;font-weight:bold;font-stretch:normal;font-size:medium;line-height:80.00000119%;font-family:'Berthold Akzidenz Grotesk';-inkscape-font-specification:'Berthold Akzidenz Grotesk';text-align:start;letter-spacing:0px;word-spacing:0px;text-anchor:start;fill:#ffc627;fill-opacity:1;stroke:none;stroke-width:1px;stroke-linecap:butt;stroke-linejoin:miter;stroke-opacity:1"
       d="m 246.53196,358.26236 -3.04,0 0,3.76 3.04,0 0,10.08 c 0,2 0.04,3.48 0.88,4.72 1.32,1.92 3.64,2.04 5.76,2.04 1.12,0 1.92,-0.12 3.24,-0.32 l 0,-4.8 -2.2,0.08 c -1.64,0 -1.64,-1.08 -1.6,-2.36 l 0,-9.4 4.08,0 0,-3.76 -4.04,0 0,-6.52 -6.12,0 0,6.48 z" />
    <path
       inkscape:connector-curvature="0"
       id="path4191"
       style="font-style:normal;font-variant:normal;font-weight:bold;font-stretch:normal;font-size:medium;line-height:80.00000119%;font-family:'Berthold Akzidenz Grotesk';-inkscape-font-specification:'Berthold Akzidenz Grotesk';text-align:start;letter-spacing:0px;word-spacing:0px;text-anchor:start;fill:#ffc627;fill-opacity:1;stroke:none;stroke-width:1px;stroke-linecap:butt;stroke-linejoin:miter;stroke-opacity:1"
       d="m 274.79258,371.02236 c -0.76,1.48 -1.92,3.68 -5.28,3.68 -3.32,0 -4.8,-2.6 -4.76,-5.2 l 14.92,0 c -0.08,-2.36 -0.24,-6.44 -2.96,-9.36 -2.68,-2.88 -6.28,-3 -7.52,-3 -8.24,0 -10.72,6.48 -10.72,11.52 0,6.84 4.36,10.8 10.56,10.8 3.36,0 6.08,-1.28 7.88,-2.96 1.08,-1 1.8,-2.04 2.52,-3.12 l -4.64,-2.36 z m -10,-5.36 c 0.2,-0.88 0.4,-1.84 1.24,-2.76 0.6,-0.64 1.64,-1.36 3.12,-1.36 1.08,0 2.24,0.4 3,1.16 0.88,0.92 1.04,2.08 1.16,2.96 l -8.52,0 z" />
    <path
       inkscape:connector-curvature="0"
       id="path4193"
       style="font-style:normal;font-variant:normal;font-weight:bold;font-stretch:normal;font-size:medium;line-height:80.00000119%;font-family:'Berthold Akzidenz Grotesk';-inkscape-font-specification:'Berthold Akzidenz Grotesk';text-align:start;letter-spacing:0px;word-spacing:0px;text-anchor:start;fill:#ffc627;fill-opacity:1;stroke:none;stroke-width:1px;stroke-linecap:butt;stroke-linejoin:miter;stroke-opacity:1"
       d="m 296.87196,371.38236 c -0.2,0.6 -0.4,1.08 -0.92,1.68 -1.28,1.44 -2.8,1.44 -3.12,1.44 -3.28,0 -4.64,-3.48 -4.64,-6.24 0,-2.52 1.12,-6.32 4.44,-6.32 0.96,0 1.72,0.32 2.32,0.72 1,0.72 1.4,1.44 1.76,2.2 l 4.56,-2.6 c -2.64,-4.36 -6.6,-5 -8.92,-5 -6.96,0 -10.48,5.12 -10.48,11.2 0,8.52 6.36,10.92 10.36,10.92 2.36,0 4.4,-0.76 6,-1.88 1.68,-1.2 2.52,-2.52 3.28,-3.72 l -4.64,-2.4 z" />
    <path
       inkscape:connector-curvature="0"
       id="path4195"
       style="font-style:normal;font-variant:normal;font-weight:bold;font-stretch:normal;font-size:medium;line-height:80.00000119%;font-family:'Berthold Akzidenz Grotesk';-inkscape-font-specification:'Berthold Akzidenz Grotesk';text-align:start;letter-spacing:0px;word-spacing:0px;text-anchor:start;fill:#ffc627;fill-opacity:1;stroke:none;stroke-width:1px;stroke-linecap:butt;stroke-linejoin:miter;stroke-opacity:1"
       d="m 302.49071,350.42236 0,28.28 6.16,0 0,-10.4 c 0,-1.8 0,-3.52 0.8,-4.6 0.52,-0.68 1.44,-1.2 2.52,-1.2 0.64,0 2.28,0.2 2.88,2.08 0.24,0.72 0.28,1.52 0.28,3.2 l 0,10.92 6.12,0 0,-13.72 c 0,-2.72 -0.32,-4.68 -2.16,-6.24 -1.24,-1.04 -2.92,-1.48 -4.44,-1.48 -3.32,0 -5.12,1.88 -6,2.76 l 0,-9.6 -6.16,0 z" />
    <path
       inkscape:connector-curvature="0"
       id="path4197"
       style="font-style:normal;font-variant:normal;font-weight:bold;font-stretch:normal;font-size:medium;line-height:80.00000119%;font-family:'Berthold Akzidenz Grotesk';-inkscape-font-specification:'Berthold Akzidenz Grotesk';text-align:start;letter-spacing:0px;word-spacing:0px;text-anchor:start;fill:#ffc627;fill-opacity:1;stroke:none;stroke-width:1px;stroke-linecap:butt;stroke-linejoin:miter;stroke-opacity:1"
       d="m 332.91133,357.86236 -6.2,0 0,20.84 6.16,0 0,-11.28 c 0,-2.6 0,-5.2 3.24,-5.2 1.2,0 2.28,0.48 2.76,1.6 0.24,0.56 0.28,1.24 0.28,3.12 l 0,11.76 6.12,0 0,-14.28 c 0,-3.24 -0.56,-5.12 -2.76,-6.28 -1.08,-0.6 -2.48,-0.84 -3.72,-0.84 -1.48,0 -2.84,0.36 -3.8,0.76 -1.08,0.52 -1.48,1 -2.08,1.64 l 0,-1.84 z" />
    <path
       inkscape:connector-curvature="0"
       id="path4199"
       style="font-style:normal;font-variant:normal;font-weight:bold;font-stretch:normal;font-size:medium;line-height:80.00000119%;font-family:'Berthold Akzidenz Grotesk';-inkscape-font-specification:'Berthold Akzidenz Grotesk';text-align:start;letter-spacing:0px;word-spacing:0px;text-anchor:start;fill:#ffc627;fill-opacity:1;stroke:none;stroke-width:1px;stroke-linecap:butt;stroke-linejoin:miter;stroke-opacity:1"
       d="m 350.85196,355.18236 6.08,0 0,-4.76 -6.08,0 0,4.76 z m 0,23.52 6.08,0 0,-20.92 -6.08,0 0,20.92 z" />
    <path
       inkscape:connector-curvature="0"
       id="path4201"
       style="font-style:normal;font-variant:normal;font-weight:bold;font-stretch:normal;font-size:medium;line-height:80.00000119%;font-family:'Berthold Akzidenz Grotesk';-inkscape-font-specification:'Berthold Akzidenz Grotesk';text-align:start;letter-spacing:0px;word-spacing:0px;text-anchor:start;fill:#ffc627;fill-opacity:1;stroke:none;stroke-width:1px;stroke-linecap:butt;stroke-linejoin:miter;stroke-opacity:1"
       d="m 376.09071,371.38236 c -0.2,0.6 -0.4,1.08 -0.92,1.68 -1.28,1.44 -2.8,1.44 -3.12,1.44 -3.28,0 -4.64,-3.48 -4.64,-6.24 0,-2.52 1.12,-6.32 4.44,-6.32 0.96,0 1.72,0.32 2.32,0.72 1,0.72 1.4,1.44 1.76,2.2 l 4.56,-2.6 c -2.64,-4.36 -6.6,-5 -8.92,-5 -6.96,0 -10.48,5.12 -10.48,11.2 0,8.52 6.36,10.92 10.36,10.92 2.36,0 4.4,-0.76 6,-1.88 1.68,-1.2 2.52,-2.52 3.28,-3.72 l -4.64,-2.4 z" />
    <path
       inkscape:connector-curvature="0"
       id="path4203"
       style="font-style:normal;font-variant:normal;font-weight:bold;font-stretch:normal;font-size:25px;line-height:80.00000119%;font-family:'Berthold Akzidenz Grotesk';-inkscape-font-specification:'Berthold Akzidenz Grotesk';text-align:start;letter-spacing:0px;word-spacing:0px;text-anchor:start;fill:#ffffff;fill-opacity:1;stroke:none;stroke-width:1px;stroke-linecap:butt;stroke-linejoin:miter;stroke-opacity:1"
       d="m 161.28946,403.5044 4.425,0 0,-6.3 2.775,0 3.5,6.3 4.875,0 -4.075,-7.05 c 1.2,-0.45 3.625,-1.325 3.625,-4.875 0,-1.6 -0.575,-3 -1.4,-3.925 -1.625,-1.75 -3.925,-1.775 -5.775,-1.8 l -7.95,0 0,17.65 z m 8.175,-14.35 c 0.925,0.025 2.55,0.1 2.55,2.35 0,2.35 -2.025,2.4 -2.65,2.425 l -3.65,0 0,-4.775 3.75,0 z" />
    <path
       inkscape:connector-curvature="0"
       id="path4205"
       style="font-style:normal;font-variant:normal;font-weight:bold;font-stretch:normal;font-size:25px;line-height:80.00000119%;font-family:'Berthold Akzidenz Grotesk';-inkscape-font-specification:'Berthold Akzidenz Grotesk';text-align:start;letter-spacing:0px;word-spacing:0px;text-anchor:start;fill:#ffffff;fill-opacity:1;stroke:none;stroke-width:1px;stroke-linecap:butt;stroke-linejoin:miter;stroke-opacity:1"
       d="m 185.66407,390.0544 c -5,-0.275 -7.525,2.9 -7.525,6.9 0,4.825 3.35,6.925 7.025,6.925 5.1,0 7,-3.625 7,-6.925 0,-2.375 -1.175,-6.6 -6.5,-6.9 z m -0.725,3.05 c 0.55,-0.05 1.45,-0.025 2.25,0.725 0.725,0.7 1.075,1.825 1.075,3.275 0,2.05 -1.025,3.725 -3.1,3.725 -2.15,0 -3.15,-1.825 -3.15,-3.9 0,-0.9 0.175,-1.8 0.65,-2.55 0.525,-0.825 1.175,-1.2 2.275,-1.275 z" />
    <path
       inkscape:connector-curvature="0"
       id="path4207"
       style="font-style:normal;font-variant:normal;font-weight:bold;font-stretch:normal;font-size:25px;line-height:80.00000119%;font-family:'Berthold Akzidenz Grotesk';-inkscape-font-specification:'Berthold Akzidenz Grotesk';text-align:start;letter-spacing:0px;word-spacing:0px;text-anchor:start;fill:#ffffff;fill-opacity:1;stroke:none;stroke-width:1px;stroke-linecap:butt;stroke-linejoin:miter;stroke-opacity:1"
       d="m 194.68907,385.8294 0,17.675 3.7,0 -0.15,-1.375 c 0.475,0.525 1.525,1.725 3.825,1.725 2.6,0 4.2,-1.65 4.875,-3.125 0.575,-1.15 0.8,-2.7 0.8,-4.025 0,-5.2 -3.45,-6.65 -5.55,-6.65 -2.225,0 -3.2,1 -3.75,1.575 l 0,-5.8 -3.75,0 z m 6.475,7.05 c 2.175,-0.125 2.825,1.875 2.825,3.95 0,0.575 -0.075,2.275 -0.775,3.2 -0.325,0.4 -0.975,0.975 -2,0.975 -0.875,0 -1.775,-0.425 -2.275,-1.225 -0.45,-0.775 -0.6,-1.975 -0.6,-2.925 0,-0.775 0.025,-3.825 2.825,-3.975 z" />
    <path
       inkscape:connector-curvature="0"
       id="path4209"
       style="font-style:normal;font-variant:normal;font-weight:bold;font-stretch:normal;font-size:25px;line-height:80.00000119%;font-family:'Berthold Akzidenz Grotesk';-inkscape-font-specification:'Berthold Akzidenz Grotesk';text-align:start;letter-spacing:0px;word-spacing:0px;text-anchor:start;fill:#ffffff;fill-opacity:1;stroke:none;stroke-width:1px;stroke-linecap:butt;stroke-linejoin:miter;stroke-opacity:1"
       d="m 216.91407,390.0544 c -5,-0.275 -7.525,2.9 -7.525,6.9 0,4.825 3.35,6.925 7.025,6.925 5.1,0 7,-3.625 7,-6.925 0,-2.375 -1.175,-6.6 -6.5,-6.9 z m -0.725,3.05 c 0.55,-0.05 1.45,-0.025 2.25,0.725 0.725,0.7 1.075,1.825 1.075,3.275 0,2.05 -1.025,3.725 -3.1,3.725 -2.15,0 -3.15,-1.825 -3.15,-3.9 0,-0.9 0.175,-1.8 0.65,-2.55 0.525,-0.825 1.175,-1.2 2.275,-1.275 z" />
    <path
       inkscape:connector-curvature="0"
       id="path4211"
       style="font-style:normal;font-variant:normal;font-weight:bold;font-stretch:normal;font-size:25px;line-height:80.00000119%;font-family:'Berthold Akzidenz Grotesk';-inkscape-font-specification:'Berthold Akzidenz Grotesk';text-align:start;letter-spacing:0px;word-spacing:0px;text-anchor:start;fill:#ffffff;fill-opacity:1;stroke:none;stroke-width:1px;stroke-linecap:butt;stroke-linejoin:miter;stroke-opacity:1"
       d="m 226.38907,390.7294 -1.9,0 0,2.35 1.9,0 0,6.3 c 0,1.25 0.025,2.175 0.55,2.95 0.825,1.2 2.275,1.275 3.6,1.275 0.7,0 1.2,-0.075 2.025,-0.2 l 0,-3 -1.375,0.05 c -1.025,0 -1.025,-0.675 -1,-1.475 l 0,-5.875 2.55,0 0,-2.35 -2.525,0 0,-4.075 -3.825,0 0,4.05 z" />
    <path
       inkscape:connector-curvature="0"
       id="path4213"
       style="font-style:normal;font-variant:normal;font-weight:bold;font-stretch:normal;font-size:25px;line-height:80.00000119%;font-family:'Berthold Akzidenz Grotesk';-inkscape-font-specification:'Berthold Akzidenz Grotesk';text-align:start;letter-spacing:0px;word-spacing:0px;text-anchor:start;fill:#ffffff;fill-opacity:1;stroke:none;stroke-width:1px;stroke-linecap:butt;stroke-linejoin:miter;stroke-opacity:1"
       d="m 234.80196,388.8044 3.8,0 0,-2.975 -3.8,0 0,2.975 z m 0,14.7 3.8,0 0,-13.075 -3.8,0 0,13.075 z" />
    <path
       inkscape:connector-curvature="0"
       id="path4215"
       style="font-style:normal;font-variant:normal;font-weight:bold;font-stretch:normal;font-size:25px;line-height:80.00000119%;font-family:'Berthold Akzidenz Grotesk';-inkscape-font-specification:'Berthold Akzidenz Grotesk';text-align:start;letter-spacing:0px;word-spacing:0px;text-anchor:start;fill:#ffffff;fill-opacity:1;stroke:none;stroke-width:1px;stroke-linecap:butt;stroke-linejoin:miter;stroke-opacity:1"
       d="m 250.57617,398.9294 c -0.125,0.375 -0.25,0.675 -0.575,1.05 -0.8,0.9 -1.75,0.9 -1.95,0.9 -2.05,0 -2.9,-2.175 -2.9,-3.9 0,-1.575 0.7,-3.95 2.775,-3.95 0.6,0 1.075,0.2 1.45,0.45 0.625,0.45 0.875,0.9 1.1,1.375 l 2.85,-1.625 c -1.65,-2.725 -4.125,-3.125 -5.575,-3.125 -4.35,0 -6.55,3.2 -6.55,7 0,5.325 3.975,6.825 6.475,6.825 1.475,0 2.75,-0.475 3.75,-1.175 1.05,-0.75 1.575,-1.575 2.05,-2.325 l -2.9,-1.5 z" />
    <path
       inkscape:connector-curvature="0"
       id="path4217"
       style="font-style:normal;font-variant:normal;font-weight:bold;font-stretch:normal;font-size:25px;line-height:80.00000119%;font-family:'Berthold Akzidenz Grotesk';-inkscape-font-specification:'Berthold Akzidenz Grotesk';text-align:start;letter-spacing:0px;word-spacing:0px;text-anchor:start;fill:#ffffff;fill-opacity:1;stroke:none;stroke-width:1px;stroke-linecap:butt;stroke-linejoin:miter;stroke-opacity:1"
       d="m 252.82617,401.3044 c 0.825,0.775 2.7,2.525 6.325,2.525 3.075,0 6.175,-1.5 6.175,-4.575 0,-3.1 -3.05,-3.8 -5.675,-4.275 -1.25,-0.225 -2.075,-0.375 -2.075,-1.125 0,-0.375 0.35,-0.975 1.85,-0.975 0.9,0 2.05,0.35 3.275,1.3 l 2.375,-2.2 c -0.9,-0.625 -2.75,-1.95 -5.825,-1.95 -3.65,0 -5.5,2.225 -5.5,4.375 0,0.975 0.4,1.875 0.975,2.45 0.575,0.575 1.375,0.9 2.175,1.125 0.575,0.175 1.175,0.3 1.75,0.4 0.75,0.125 1.65,0.2 2.225,0.5 0.225,0.125 0.5,0.3 0.5,0.75 0,0.975 -1.4,1.275 -2.325,1.275 -1.45,0 -2.75,-0.775 -3.8,-1.8 l -2.425,2.2 z" />
  </g>
</svg>
